<?xml version="1.0" encoding="UTF-8"?>
<svg id="Layer_2" data-name="Layer 2" xmlns="http://www.w3.org/2000/svg" width="126.71" height="37.5" viewBox="0 0 126.71 37.5">
  <g id="Layer_1-2" data-name="Layer 1">
    <g>
      <g>
        <path d="M15.9,0c.45,0,.67.22.67.67v2.89c0,.45-.22.67-.67.67H5.25c-.38,0-.58.2-.58.62v.4c0,.42.18.62.56.62h7.66c2.74,0,4.25,1.51,4.25,4.12v1.76c0,2.29-1.45,3.83-4.32,3.83H.69c-.45,0-.67-.22-.67-.67v-2.89c0-.45.22-.67.67-.67h11.2c.38,0,.58-.2.58-.62v-.51c0-.42-.18-.62-.56-.62h-7.66c-2.74,0-4.25-1.51-4.25-4.12v-1.65C0,1.54,1.45,0,4.32,0h11.58Z" style="fill: #fff;"/>
        <path d="M32.7,0c4.61,0,6.37,1.6,6.37,5.88v3.83c0,4.27-1.76,5.88-6.37,5.88h-7.01c-4.61,0-6.37-1.6-6.37-5.88v-3.83c0-4.27,1.76-5.88,6.37-5.88h7.01ZM24,9.35c0,1.67.29,2,1.87,2h6.66c1.58,0,1.87-.33,1.87-2v-3.12c0-1.67-.29-2-1.87-2h-6.66c-1.58,0-1.87.33-1.87,2v3.12Z" style="fill: #fff;"/>
        <path d="M45.61,0c.45,0,.67.22.67.67v8.57c0,1.67.29,2,1.87,2h8.99c.45,0,.67.22.67.67v3.01c0,.45-.22.67-.67.67h-9.17c-4.61,0-6.37-1.6-6.37-5.88V.67c0-.45.22-.67.67-.67h3.34Z" style="fill: #fff;"/>
        <path d="M63.6,0c.45,0,.67.22.67.67v14.25c0,.45-.22.67-.67.67h-3.34c-.45,0-.67-.22-.67-.67V.67c0-.45.22-.67.67-.67h3.34Z" style="fill: #fff;"/>
        <path d="M78.34,0c4.94,0,6.97,1.94,6.97,6.28v3.03c0,4.34-2.03,6.28-6.97,6.28h-10.64c-.45,0-.67-.22-.67-.67V.67c0-.45.22-.67.67-.67h10.64ZM71.7,11.02c0,.22.09.33.29.33h6.23c1.92,0,2.4-.45,2.4-2.47v-2.18c0-2.03-.49-2.47-2.4-2.47h-6.23c-.2,0-.29.11-.29.33v6.46Z" style="fill: #fff;"/>
        <path d="M91.85,0c.45,0,.67.22.67.67v8.57c0,1.67.29,2,1.87,2h6.19c1.58,0,1.87-.33,1.87-2V.67c0-.45.22-.67.67-.67h3.34c.45,0,.67.22.67.67v9.04c0,4.27-1.76,5.88-6.37,5.88h-6.55c-4.61,0-6.37-1.6-6.37-5.88V.67c0-.45.22-.67.67-.67h3.34Z" style="fill: #fff;"/>
        <path d="M125.47,0c.44,0,.67.22.67.67v2.89c0,.45-.22.67-.67.67h-10.64c-.38,0-.58.2-.58.62v.4c0,.42.18.62.56.62h7.66c2.74,0,4.25,1.51,4.25,4.12v1.76c0,2.29-1.45,3.83-4.32,3.83h-12.13c-.45,0-.67-.22-.67-.67v-2.89c0-.45.22-.67.67-.67h11.2c.38,0,.58-.2.58-.62v-.51c0-.42-.18-.62-.56-.62h-7.66c-2.74,0-4.25-1.51-4.25-4.12v-1.65c0-2.29,1.45-3.83,4.32-3.83h11.58Z" style="fill: #fff;"/>
      </g>
      <g>
        <path d="M12.85,21.91c3.32,0,4.63,1.56,4.63,4.52v1.36c0,2.96-1.31,4.52-4.63,4.52H2.6v4.88c0,.2-.11.31-.31.31H.78c-.2,0-.31-.11-.31-.31v-14.6c0-.45.22-.67.67-.67h11.71ZM2.6,30.43h9.86c2.09,0,2.87-.96,2.87-2.85v-.89c0-1.89-.78-2.85-2.87-2.85H2.85c-.18,0-.25.09-.25.25v6.34Z" style="fill: #f15f2f;"/>
        <path d="M32.3,21.91c3.32,0,4.63,1.56,4.63,4.52v1.16c0,2.65-1.05,4.16-3.65,4.45l4.25,5.05c.11.13.07.4-.2.4h-1.76c-.25,0-.36-.07-.45-.2l-4.1-5.08h-8.97v4.96c0,.2-.11.31-.31.31h-1.51c-.2,0-.31-.11-.31-.31v-14.6c0-.45.22-.67.67-.67h11.71ZM22.06,30.48h9.86c2.09,0,2.87-.96,2.87-2.85v-.94c0-1.89-.78-2.85-2.87-2.85h-9.62c-.18,0-.25.07-.25.25v6.39Z" style="fill: #f15f2f;"/>
        <path d="M52.16,21.91c4.41,0,6.1,1.6,6.1,5.88v3.83c0,4.27-1.69,5.88-6.1,5.88h-6.72c-4.41,0-6.1-1.6-6.1-5.88v-3.83c0-4.27,1.69-5.88,6.1-5.88h6.72ZM41.47,31.48c0,3.03,1.02,4.05,4.03,4.05h6.59c3.01,0,4.03-1.02,4.03-4.05v-3.56c0-3.03-1.02-4.05-4.03-4.05h-6.59c-3.01,0-4.03,1.02-4.03,4.05v3.56Z" style="fill: #f15f2f;"/>
      </g>
      <rect x="109.59" y="21.91" width="17.12" height="15.58" style="fill: #f15f2f;"/>
      <rect x="87.84" y="21.91" width="19.28" height="15.58" style="fill: #f15f2f;"/>
      <rect x="67.03" y="21.87" width="18.28" height="15.58" style="fill: #f15f2f;"/>
    </g>
  </g>
</svg>